<?xml version="1.0" encoding="utf-8"?>
<!-- Generator: Adobe Illustrator 16.0.0, SVG Export Plug-In . SVG Version: 6.00 Build 0)  -->
<!DOCTYPE svg PUBLIC "-//W3C//DTD SVG 1.1//EN" "http://www.w3.org/Graphics/SVG/1.1/DTD/svg11.dtd">
<svg version="1.1" id="Layer_1" xmlns="http://www.w3.org/2000/svg" xmlns:xlink="http://www.w3.org/1999/xlink" x="0px" y="0px"
	 width="144px" height="108px" viewBox="0 0 144 108" enable-background="new 0 0 144 108" xml:space="preserve">
<g id="XMLID_1_">
	<g>
		<path fill="#D59CC7" d="M35.184,2.992v24.09c0,0.525-0.429,0.954-0.953,0.954H10.14c-0.536,0-0.953-0.429-0.953-0.954V2.992
			c0-0.525,0.417-0.953,0.953-0.953H34.23C34.755,2.039,35.184,2.467,35.184,2.992z"/>
		<path d="M35.184,27.083V2.992c0-0.525-0.429-0.953-0.953-0.953H10.14c-0.536,0-0.953,0.428-0.953,0.953v24.09
			c0,0.525,0.417,0.954,0.953,0.954H34.23C34.755,28.036,35.184,27.607,35.184,27.083z M36.223,2.992v24.09
			c0,1.104-0.889,1.993-1.992,1.993H10.14c-1.103,0-2.003-0.889-2.003-1.993V2.992C8.137,1.889,9.037,1,10.14,1H34.23
			C35.333,1,36.223,1.889,36.223,2.992z"/>
	</g>
	<g>
	</g>
</g>
<g>
	<path fill="#FFFFFF" d="M18.454,17.867l-0.748,2.7h-2.464l3.211-10.516h3.121l3.26,10.516h-2.557l-0.812-2.7H18.454z
		 M21.123,16.087l-0.657-2.229c-0.186-0.626-0.373-1.405-0.528-2.029h-0.031c-0.157,0.624-0.312,1.418-0.485,2.029l-0.624,2.229
		H21.123z"/>
	<path fill="#FFFFFF" d="M28.518,10.815c0,0.655-0.501,1.185-1.278,1.185c-0.751,0-1.25-0.53-1.234-1.185
		c-0.016-0.686,0.483-1.201,1.249-1.201C28.017,9.615,28.502,10.129,28.518,10.815z M26.069,20.567v-7.629h2.372v7.629H26.069z"/>
</g>
<g id="XMLID_2_">
	<g>
		<path fill="#D59CC7" d="M34.948,41.383v24.091c0,0.535-0.428,0.953-0.953,0.953H9.904c-0.524,0-0.953-0.418-0.953-0.953V41.383
			c0-0.525,0.429-0.953,0.953-0.953h24.091C34.52,40.43,34.948,40.858,34.948,41.383z"/>
		<path d="M34.948,65.474V41.383c0-0.525-0.428-0.953-0.953-0.953H9.904c-0.524,0-0.953,0.428-0.953,0.953v24.091
			c0,0.535,0.429,0.953,0.953,0.953h24.091C34.52,66.427,34.948,66.009,34.948,65.474z M35.987,41.383v24.091
			c0,1.104-0.889,2.003-1.992,2.003H9.904c-1.103,0-1.992-0.899-1.992-2.003V41.383c0-1.104,0.889-1.992,1.992-1.992h24.091
			C35.098,39.391,35.987,40.279,35.987,41.383z"/>
	</g>
	<g>
	</g>
</g>
<g>
	<path fill="#FFFFFF" d="M15.226,48.583c0.732-0.125,1.763-0.218,3.212-0.218c1.468,0,2.513,0.282,3.215,0.843
		c0.671,0.53,1.124,1.403,1.124,2.433c0,1.031-0.343,1.904-0.967,2.497c-0.811,0.765-2.013,1.107-3.417,1.107
		c-0.314,0-0.594-0.016-0.812-0.047v3.761h-2.356V48.583z M17.582,53.357c0.202,0.046,0.452,0.063,0.795,0.063
		c1.265,0,2.043-0.64,2.043-1.717c0-0.966-0.67-1.545-1.854-1.545c-0.487,0-0.813,0.047-0.984,0.094V53.357z"/>
	<path fill="#FFFFFF" d="M23.869,56.884c0.438,0.265,1.342,0.577,2.044,0.577c0.716,0,1.012-0.25,1.012-0.641
		s-0.235-0.577-1.124-0.872c-1.575-0.532-2.184-1.391-2.167-2.295c0-1.42,1.217-2.496,3.105-2.496c0.888,0,1.685,0.203,2.153,0.437
		l-0.422,1.638c-0.343-0.187-0.999-0.437-1.653-0.437c-0.578,0-0.904,0.234-0.904,0.625c0,0.357,0.296,0.546,1.231,0.874
		c1.452,0.499,2.059,1.232,2.076,2.355c0,1.42-1.125,2.465-3.307,2.465c-1,0-1.89-0.218-2.467-0.531L23.869,56.884z"/>
</g>
<g id="XMLID_3_">
	<g>
		<path fill="#D59CC7" d="M34.948,80.277v24.09c0,0.525-0.428,0.954-0.953,0.954H9.904c-0.524,0-0.953-0.429-0.953-0.954v-24.09
			c0-0.536,0.429-0.965,0.953-0.965h24.091C34.52,79.312,34.948,79.741,34.948,80.277z"/>
		<path d="M34.948,104.367v-24.09c0-0.536-0.428-0.965-0.953-0.965H9.904c-0.524,0-0.953,0.429-0.953,0.965v24.09
			c0,0.525,0.429,0.954,0.953,0.954h24.091C34.52,105.321,34.948,104.893,34.948,104.367z M35.987,80.277v24.09
			c0,1.104-0.889,1.992-1.992,1.992H9.904c-1.103,0-1.992-0.889-1.992-1.992v-24.09c0-1.104,0.889-2.004,1.992-2.004h24.091
			C35.098,78.273,35.987,79.174,35.987,80.277z"/>
	</g>
	<g>
	</g>
</g>
<g>
	<path fill="#FFFFFF" d="M18.517,87.332v10.516h-2.387V87.332H18.517z"/>
	<path fill="#FFFFFF" d="M27.846,86.771v8.798c0,0.86,0.032,1.765,0.062,2.279h-2.106l-0.11-1.124h-0.03
		c-0.485,0.859-1.405,1.294-2.387,1.294c-1.811,0-3.261-1.544-3.261-3.915c-0.016-2.574,1.59-4.055,3.416-4.055
		c0.937,0,1.67,0.325,2.015,0.856h0.03v-4.134H27.846z M25.475,93.447c0-0.125-0.016-0.296-0.03-0.42
		c-0.143-0.641-0.657-1.17-1.389-1.17c-1.077,0-1.638,0.966-1.638,2.168c0,1.293,0.64,2.107,1.623,2.107
		c0.685,0,1.232-0.47,1.372-1.14c0.047-0.171,0.063-0.345,0.063-0.546V93.447z"/>
</g>
<circle fill="#BC7FAC" stroke="#000000" stroke-miterlimit="10" cx="131.461" cy="16.76" r="4.554"/>
<circle fill="#BC7FAC" stroke="#000000" stroke-miterlimit="10" cx="131.452" cy="93.879" r="4.552"/>
<circle fill="#BC7FAC" stroke="#000000" stroke-miterlimit="10" cx="112.292" cy="16.76" r="4.552"/>
<circle fill="#BC7FAC" stroke="#000000" stroke-miterlimit="10" cx="112.284" cy="93.879" r="4.553"/>
<circle fill="#FFFFFF" stroke="#000000" stroke-miterlimit="10" cx="93.504" cy="16.431" r="4.552"/>
<circle fill="#BC7FAC" stroke="#000000" stroke-miterlimit="10" cx="93.497" cy="54.66" r="4.552"/>
<circle fill="#FFFFFF" stroke="#000000" stroke-miterlimit="10" cx="93.497" cy="93.55" r="4.552"/>
<circle fill="#FFFFFF" stroke="#000000" stroke-miterlimit="10" cx="54.877" cy="16.429" r="4.553"/>
<circle fill="#FFFFFF" stroke="#000000" stroke-miterlimit="10" cx="54.869" cy="54.658" r="4.552"/>
<circle fill="#FFFFFF" stroke="#000000" stroke-miterlimit="10" cx="54.869" cy="93.549" r="4.552"/>
<circle fill="#FFFFFF" stroke="#231F20" stroke-miterlimit="10" cx="74.431" cy="16.429" r="4.553"/>
<circle fill="#FFFFFF" stroke="#000000" stroke-miterlimit="10" cx="74.423" cy="54.658" r="4.553"/>
<circle fill="#FFFFFF" stroke="#000000" stroke-miterlimit="10" cx="74.423" cy="93.549" r="4.553"/>
<circle fill="#BC7FAC" stroke="#000000" stroke-miterlimit="10" cx="112.836" cy="54.733" r="4.552"/>
<circle fill="#BC7FAC" stroke="#000000" stroke-miterlimit="10" cx="131.461" cy="54.733" r="4.554"/>
</svg>
