<?xml version="1.0" encoding="utf-8"?>
<!-- Generator: Adobe Illustrator 16.0.0, SVG Export Plug-In . SVG Version: 6.00 Build 0)  -->
<!DOCTYPE svg PUBLIC "-//W3C//DTD SVG 1.1//EN" "http://www.w3.org/Graphics/SVG/1.1/DTD/svg11.dtd">
<svg version="1.1" id="Layer_1" xmlns="http://www.w3.org/2000/svg" xmlns:xlink="http://www.w3.org/1999/xlink" x="0px" y="0px"
	 width="165.6px" height="165.6px" viewBox="0 0 165.6 165.6" enable-background="new 0 0 165.6 165.6" xml:space="preserve">
<rect x="1.168" y="100.924" fill="#DB9FC7" stroke="#231F20" stroke-miterlimit="10" width="15.16" height="36.699"/>
<rect x="34.373" y="104.181" fill="#D49CC6" stroke="#000000" stroke-miterlimit="10" width="15.16" height="34.504"/>
<rect x="67.482" y="34.594" fill="#DB9EC6" stroke="#231F20" stroke-miterlimit="10" width="15.158" height="103.029"/>
<path fill="none" stroke="#231F20" stroke-miterlimit="10" d="M125.69,140.173V14.502V140.173z"/>
<rect x="100.342" y="23.934" fill="#D49CC6" stroke="#231F20" stroke-miterlimit="10" width="15.159" height="113.689"/>
<line fill="none" stroke="#231F20" stroke-width="4" stroke-miterlimit="10" x1="0.482" y1="138.685" x2="125.69" y2="138.685"/>
<g>
	<text transform="matrix(-1.410807e-10 1.0474 -1 -1.346898e-10 103.4524 104.2258)" font-family="'Helvetica'" font-size="10">HTML</text>
	<text transform="matrix(-1.410807e-10 1.0474 -1 -1.346898e-10 70.4309 111.1545)" font-family="'Helvetica'" font-size="10">CSS</text>
	<text transform="matrix(-1.410807e-10 1.0474 -1 -1.346898e-10 37.9133 90.5764)" font-family="'Helvetica'" font-size="10">JQUERY</text>
	<text transform="matrix(-1.410807e-10 1.0474 -1 -1.346898e-10 4.1418 69.5764)" font-family="'Helvetica'" font-size="10">JAVASCRIPT</text>
</g>
<text transform="matrix(1.0474 0 0 1 1.4827 152.4983)" fill="#FFFFFF" font-family="'Helvetica'" font-size="10">CODING PROFICIENCY</text>
<g>
	<text transform="matrix(0.7407 -0.7407 0.7071 0.7071 133.2737 21.9343)" fill="#FFFFFF" font-family="'Helvetica'" font-size="9">PRO</text>
	<text transform="matrix(0.7407 -0.7407 0.7071 0.7071 133.2737 77.3386)" fill="#FFFFFF" font-family="'Helvetica'" font-size="9">SO-SO</text>
	
		<text transform="matrix(0.7407 -0.7407 0.7071 0.7071 133.2727 134.3704)" fill="#FFFFFF" font-family="'Helvetica'" font-size="9">LOW</text>
</g>
</svg>
