<?xml version="1.0" encoding="utf-8"?>
<!-- Generator: Adobe Illustrator 16.0.0, SVG Export Plug-In . SVG Version: 6.00 Build 0)  -->
<!DOCTYPE svg PUBLIC "-//W3C//DTD SVG 1.1//EN" "http://www.w3.org/Graphics/SVG/1.1/DTD/svg11.dtd">
<svg version="1.1" id="Layer_1" xmlns="http://www.w3.org/2000/svg" xmlns:xlink="http://www.w3.org/1999/xlink" x="0px" y="0px"
	 width="377.14px" height="189.359px" viewBox="0 0 377.14 189.359" enable-background="new 0 0 377.14 189.359"
	 xml:space="preserve">
<g id="XMLID_15_">
	<g>
		<polygon points="69.57,189.891 98.393,189.891 187.949,98.622 188.047,98.552 276.426,189.629 304.871,189.629 187.997,69.186 		
			"/>
	</g>
	<g>
		<polyline fill="none" stroke="#000000" stroke-miterlimit="10" points="188.047,98.552 276.426,189.629 304.871,189.629 
			187.997,69.186 187.7,68.885 		"/>
		<polyline fill="none" stroke="#000000" stroke-miterlimit="10" points="187.949,98.622 98.393,189.891 69.57,189.891 
			187.997,69.186 188.297,68.885 		"/>
	</g>
</g>
<g id="XMLID_14_">
	<g>
		<polygon fill="#CCE08C" points="314.117,189.09 339.246,189.069 187.403,37.237 187.232,37.406 36.567,188.86 61.447,188.88 
			187.232,62.436 187.352,62.317 		"/>
	</g>
	<g>
		<polyline fill="none" stroke="#CCE08C" stroke-miterlimit="10" points="187.113,36.947 187.403,37.237 339.246,189.069 
			314.117,189.09 187.352,62.317 187.113,62.088 		"/>
		<polyline fill="none" stroke="#CCE08C" stroke-miterlimit="10" points="187.232,37.406 36.567,188.86 61.447,188.88 
			187.232,62.436 		"/>
	</g>
</g>
<g id="XMLID_16_">
	<g>
		<polygon fill="#4E1E58" points="187.852,104.608 291.57,209.271 263.561,209.271 188.481,133.507 188.147,133.222 114.887,209.23 
			86.57,209.179 187.593,104.347 		"/>
	</g>
	<g>
		<polyline fill="none" stroke="#4E1E58" stroke-miterlimit="10" points="187.852,104.608 291.57,209.271 263.561,209.271 
			188.481,133.507 		"/>
		<polyline fill="none" stroke="#4E1E58" stroke-miterlimit="10" points="188.147,133.222 114.887,209.23 86.57,209.179 
			187.593,104.347 188.007,103.919 		"/>
	</g>
</g>
<g id="XMLID_17_">
	<g>
		<polygon fill="#BC7FAC" points="168.012,185.146 163.799,189.359 140.996,189.359 179.728,150.626 188.342,142.011 
			235.687,189.359 212.884,189.359 188.342,164.815 		"/>
	</g>
	<g>
		<polyline fill="none" stroke="#BC7FAC" stroke-miterlimit="10" points="188.652,141.704 188.342,142.011 179.728,150.626 		"/>
		<polyline fill="none" stroke="#BC7FAC" stroke-miterlimit="10" points="179.728,150.626 140.996,189.359 163.799,189.359 
			168.012,185.146 		"/>
		<polyline fill="none" stroke="#BC7FAC" stroke-miterlimit="10" points="168.012,185.146 188.342,164.815 188.558,164.599 		"/>
		<polyline fill="none" stroke="#BC7FAC" stroke-miterlimit="10" points="188.032,141.704 188.342,142.011 235.687,189.359 
			212.884,189.359 188.342,164.815 188.125,164.599 		"/>
	</g>
</g>
<g>
	<polygon fill="#AB1F63" points="348.492,189.934 375.07,189.913 187.262,2.037 -0.07,189.913 26.44,189.934 187.262,28.643 	"/>
</g>
</svg>
