<?xml version="1.0" encoding="utf-8"?>
<!-- Generator: Adobe Illustrator 16.0.0, SVG Export Plug-In . SVG Version: 6.00 Build 0)  -->
<!DOCTYPE svg PUBLIC "-//W3C//DTD SVG 1.1//EN" "http://www.w3.org/Graphics/SVG/1.1/DTD/svg11.dtd">
<svg version="1.1" id="Layer_1" xmlns="http://www.w3.org/2000/svg" xmlns:xlink="http://www.w3.org/1999/xlink" x="0px" y="0px"
	 width="377.14px" height="189.359px" viewBox="0 0 377.14 189.359" enable-background="new 0 0 377.14 189.359"
	 xml:space="preserve">
<g id="XMLID_2_">
	<g>
		<polygon fill="#FFFFFF" points="-0.393,218.611 45.853,218.611 189.542,73.64 189.703,73.528 331.503,218.194 377.14,218.194 
			189.621,26.884 		"/>
	</g>
	<g>
		<polyline fill="none" stroke="#FFFFFF" stroke-miterlimit="10" points="189.703,73.528 331.503,218.194 377.14,218.194 
			189.621,26.884 189.144,26.406 		"/>
		<polyline fill="none" stroke="#FFFFFF" stroke-miterlimit="10" points="189.542,73.64 45.853,218.611 -0.393,218.611 
			189.621,26.884 190.103,26.406 		"/>
	</g>
</g>
<g id="XMLID_1_">
	<g>
		<polygon fill="#FFFFFF" points="23.513,186.798 63.071,186.798 185.98,62.793 186.116,62.697 307.41,186.441 346.447,186.441 
			186.046,22.799 		"/>
	</g>
	<g>
		<polyline fill="none" stroke="#FFFFFF" stroke-miterlimit="10" points="186.116,62.697 307.41,186.441 346.447,186.441 
			186.046,22.799 185.638,22.389 		"/>
		<polyline fill="none" stroke="#FFFFFF" stroke-miterlimit="10" points="185.98,62.793 63.071,186.798 23.513,186.798 
			186.046,22.799 186.458,22.389 		"/>
	</g>
</g>
<g id="XMLID_15_">
	<g>
		<polygon points="71.136,189.891 99.645,189.891 188.224,100.522 188.322,100.453 275.737,189.635 303.871,189.635 188.272,71.699 
					"/>
	</g>
	<g>
		<polyline fill="none" stroke="#000000" stroke-miterlimit="10" points="188.322,100.453 275.737,189.635 303.871,189.635 
			188.272,71.699 187.978,71.404 		"/>
		<polyline fill="none" stroke="#000000" stroke-miterlimit="10" points="188.224,100.522 99.645,189.891 71.136,189.891 
			188.272,71.699 188.569,71.404 		"/>
	</g>
</g>
<g id="XMLID_14_">
	<g>
		<polygon fill="#CCE08C" points="315.117,189.09 340.246,189.069 188.403,37.237 188.232,37.406 37.567,188.86 62.447,188.88 
			188.232,62.436 188.352,62.317 		"/>
	</g>
	<g>
		<polyline fill="none" stroke="#CCE08C" stroke-miterlimit="10" points="188.113,36.947 188.403,37.237 340.246,189.069 
			315.117,189.09 188.352,62.317 188.113,62.088 		"/>
		<polyline fill="none" stroke="#CCE08C" stroke-miterlimit="10" points="188.232,37.406 37.567,188.86 62.447,188.88 
			188.232,62.436 		"/>
	</g>
</g>
<g id="XMLID_16_">
	<g>
		<polygon fill="#4E1E58" points="187.944,104.594 290.41,207.058 262.74,207.058 188.566,132.885 188.236,132.607 115.86,207.018 
			87.885,206.969 187.689,104.339 		"/>
	</g>
	<g>
		<polyline fill="none" stroke="#4E1E58" stroke-miterlimit="10" points="187.944,104.594 290.41,207.058 262.74,207.058 
			188.566,132.885 		"/>
		<polyline fill="none" stroke="#4E1E58" stroke-miterlimit="10" points="188.236,132.607 115.86,207.018 87.885,206.969 
			187.689,104.339 188.097,103.919 		"/>
	</g>
</g>
<g id="XMLID_17_">
	<g>
		<polygon fill="#BC7FAC" points="167.345,185.172 162.924,189.593 138.996,189.593 179.639,148.948 188.678,139.909 
			238.36,189.593 214.432,189.593 188.678,163.838 		"/>
	</g>
	<g>
		<polyline fill="none" stroke="#BC7FAC" stroke-miterlimit="10" points="189.004,139.586 188.678,139.909 179.639,148.948 		"/>
		<polyline fill="none" stroke="#BC7FAC" stroke-miterlimit="10" points="179.639,148.948 138.996,189.593 162.924,189.593 
			167.345,185.172 		"/>
		<polyline fill="none" stroke="#BC7FAC" stroke-miterlimit="10" points="167.345,185.172 188.678,163.838 188.905,163.611 		"/>
		<polyline fill="none" stroke="#BC7FAC" stroke-miterlimit="10" points="188.353,139.586 188.678,139.909 238.36,189.593 
			214.432,189.593 188.678,163.838 188.451,163.611 		"/>
	</g>
</g>
<g>
	<polygon fill="#AB1F63" points="349.425,189.854 376.07,189.833 187.796,2.037 0,189.833 26.575,189.854 187.796,28.632 	"/>
</g>
</svg>
