<?xml version="1.0" encoding="utf-8"?>
<!-- Generator: Adobe Illustrator 16.0.0, SVG Export Plug-In . SVG Version: 6.00 Build 0)  -->
<!DOCTYPE svg PUBLIC "-//W3C//DTD SVG 1.1//EN" "http://www.w3.org/Graphics/SVG/1.1/DTD/svg11.dtd">
<svg version="1.1" id="Layer_1" xmlns="http://www.w3.org/2000/svg" xmlns:xlink="http://www.w3.org/1999/xlink" x="0px" y="0px"
	 width="189.02px" height="377.14px" viewBox="0 0 189.02 377.14" enable-background="new 0 0 189.02 377.14" xml:space="preserve">
<g id="XMLID_15_">
	<g>
		<polygon points="119.13,187.552 -0.39,304.702 -0.39,276.191 89.99,187.602 89.92,187.502 -0.65,97.732 -0.65,68.842 		"/>
	</g>
	<g>
		<polyline fill="none" stroke="#000000" stroke-miterlimit="10" points="119.43,187.252 119.13,187.552 -0.39,304.702 
			-0.39,276.191 89.99,187.602 		"/>
		<polyline fill="none" stroke="#000000" stroke-miterlimit="10" points="119.43,187.852 119.13,187.552 -0.65,68.842 -0.65,97.732 
			89.92,187.502 		"/>
	</g>
</g>
<g id="XMLID_14_">
	<g>
		<polygon fill="#AFD252" points="126.229,187.972 126.11,187.852 -0.64,61.762 -0.62,36.822 151.2,187.852 151.37,188.022 
			-0.83,340.231 -0.85,315.042 		"/>
	</g>
	<g>
		<polyline fill="none" stroke="#AFD252" stroke-miterlimit="10" points="126.46,187.732 126.229,187.972 -0.85,315.042 
			-0.83,340.231 151.37,188.022 151.66,187.732 		"/>
		<polyline fill="none" stroke="#AFD252" stroke-miterlimit="10" points="126.11,187.852 -0.64,61.762 -0.62,36.822 151.2,187.852 
					"/>
	</g>
</g>
<g id="XMLID_12_">
	<g>
		<polygon fill="#AB1F63" points="161.26,188.197 -0.42,26.518 -0.4,-0.133 187.93,188.197 -0.4,377.008 -0.42,350.287 		"/>
	</g>
	<g>
		<polyline fill="none" stroke="#AB1F63" stroke-miterlimit="10" points="188.17,188.438 187.93,188.197 -0.4,-0.133 -0.42,26.518 
			161.26,188.197 161.5,188.438 		"/>
		<polyline fill="none" stroke="#AB1F63" stroke-miterlimit="10" points="188.17,187.947 187.93,188.197 -0.4,377.008 
			-0.42,350.287 161.26,188.197 161.5,187.947 		"/>
	</g>
</g>
<g id="XMLID_16_">
	<g>
		<polygon fill="#4E1E58" points="80.35,186.803 -0.32,108.353 -0.36,130.343 58.13,187.232 57.91,187.493 -0.39,245.793 
			-0.39,267.543 80.15,187.002 		"/>
	</g>
	<g>
		<polyline fill="none" stroke="#4E1E58" stroke-miterlimit="10" points="57.91,187.493 -0.39,245.793 -0.39,267.543 80.15,187.002 
					"/>
		<polyline fill="none" stroke="#4E1E58" stroke-miterlimit="10" points="80.68,187.123 80.35,186.803 -0.32,108.353 -0.36,130.343 
			58.13,187.232 		"/>
	</g>
</g>
<g id="XMLID_17_">
	<g>
		<polygon fill="#BC7FAC" points="26.74,187.962 0.64,214.062 0.64,238.312 50.99,187.962 41.83,178.803 0.64,137.613 0.64,161.863 
			5.12,166.343 		"/>
	</g>
	<g>
		<polyline fill="none" stroke="#BC7FAC" stroke-miterlimit="10" points="41.83,178.803 50.99,187.962 51.32,188.292 		"/>
		<polyline fill="none" stroke="#BC7FAC" stroke-miterlimit="10" points="5.12,166.343 0.64,161.863 0.64,137.613 41.83,178.803 		
			"/>
		<polyline fill="none" stroke="#BC7FAC" stroke-miterlimit="10" points="26.97,188.192 26.74,187.962 5.12,166.343 		"/>
		<polyline fill="none" stroke="#BC7FAC" stroke-miterlimit="10" points="26.97,187.732 26.74,187.962 0.64,214.062 0.64,238.312 
			50.99,187.962 51.32,187.633 		"/>
	</g>
</g>
</svg>
