<?xml version="1.0" encoding="utf-8"?>
<!-- Generator: Adobe Illustrator 16.0.0, SVG Export Plug-In . SVG Version: 6.00 Build 0)  -->
<!DOCTYPE svg PUBLIC "-//W3C//DTD SVG 1.1//EN" "http://www.w3.org/Graphics/SVG/1.1/DTD/svg11.dtd">
<svg version="1.1" id="Layer_1" xmlns="http://www.w3.org/2000/svg" xmlns:xlink="http://www.w3.org/1999/xlink" x="0px" y="0px"
	 width="377.14px" height="189.359px" viewBox="0 0 377.14 189.359" enable-background="new 0 0 377.14 189.359"
	 xml:space="preserve">
<g>
	<polygon fill="#FFFFFF" points="189.349,99.912 306.5,-19.609 277.99,-19.609 189.399,70.772 189.3,70.701 99.53,-19.869 
		70.639,-19.869 	"/>
</g>
<polygon fill="#FFFFFF" points="188.331,139.968 26.65,-21.713 0,-21.692 188.331,166.638 377.14,-21.692 350.419,-21.713 "/>
<g id="XMLID_15_">
	<g>
		<polygon points="187.774,118.321 304.925,-1.199 276.414,-1.199 187.824,89.181 187.725,89.111 97.955,-1.459 69.064,-1.459 		"/>
	</g>
	<g>
		<polyline fill="none" stroke="#000000" stroke-miterlimit="10" points="187.475,118.621 187.774,118.321 304.925,-1.199 
			276.414,-1.199 187.824,89.181 		"/>
		<polyline fill="none" stroke="#000000" stroke-miterlimit="10" points="188.074,118.621 187.774,118.321 69.064,-1.459 
			97.955,-1.459 187.725,89.111 		"/>
	</g>
</g>
<g id="XMLID_14_">
	<g>
		<polygon fill="#CCE08C" points="187.854,126.816 187.733,126.695 60.258,-1.447 35.044,-1.427 187.733,152.061 187.906,152.233 
			341.789,-1.639 316.322,-1.659 		"/>
	</g>
	<g>
		<polyline fill="none" stroke="#CCE08C" stroke-miterlimit="10" points="187.613,127.049 187.854,126.816 316.322,-1.659 
			341.789,-1.639 187.906,152.233 187.613,152.527 		"/>
		<polyline fill="none" stroke="#CCE08C" stroke-miterlimit="10" points="187.733,126.695 60.258,-1.447 35.044,-1.427 
			187.733,152.061 		"/>
	</g>
</g>
<g id="XMLID_16_">
	<g>
		<polygon fill="#4E1E58" points="187.183,84.23 86.038,-19.779 114.389,-19.83 187.737,55.582 188.072,55.299 263.242,-19.869 
			291.283,-19.869 187.441,83.971 		"/>
	</g>
	<g>
		<polyline fill="none" stroke="#4E1E58" stroke-miterlimit="10" points="188.072,55.299 263.242,-19.869 291.283,-19.869 
			187.441,83.971 		"/>
		<polyline fill="none" stroke="#4E1E58" stroke-miterlimit="10" points="187.596,84.656 187.183,84.23 86.038,-19.779 
			114.389,-19.83 187.737,55.582 		"/>
	</g>
</g>
<g id="XMLID_17_">
	<g>
		<polygon fill="#BC7FAC" points="188.185,23.931 214.285,-2.169 238.535,-2.169 188.185,48.181 179.025,39.021 137.835,-2.169 
			162.085,-2.169 166.565,2.311 		"/>
	</g>
	<g>
		<polyline fill="none" stroke="#BC7FAC" stroke-miterlimit="10" points="179.025,39.021 188.185,48.181 188.515,48.51 		"/>
		<polyline fill="none" stroke="#BC7FAC" stroke-miterlimit="10" points="166.565,2.311 162.085,-2.169 137.835,-2.169 
			179.025,39.021 		"/>
		<polyline fill="none" stroke="#BC7FAC" stroke-miterlimit="10" points="188.415,24.161 188.185,23.931 166.565,2.311 		"/>
		<polyline fill="none" stroke="#BC7FAC" stroke-miterlimit="10" points="187.955,24.161 188.185,23.931 214.285,-2.169 
			238.535,-2.169 188.185,48.181 187.855,48.51 		"/>
	</g>
</g>
<g>
	<polygon fill="#AB1F63" points="187.42,160.26 25.74,-1.421 -0.91,-1.4 187.42,186.93 376.23,-1.4 349.509,-1.421 	"/>
</g>
<g id="XMLID_1_">
	<g>
		<polygon fill="#FFFFFF" points="188.416,-7.824 214.515,-33.924 238.765,-33.924 188.416,16.426 179.256,7.266 138.066,-33.924 
			162.316,-33.924 166.796,-29.444 		"/>
	</g>
</g>
</svg>
