<?xml version="1.0" encoding="utf-8"?>
<!-- Generator: Adobe Illustrator 16.0.0, SVG Export Plug-In . SVG Version: 6.00 Build 0)  -->
<!DOCTYPE svg PUBLIC "-//W3C//DTD SVG 1.1//EN" "http://www.w3.org/Graphics/SVG/1.1/DTD/svg11.dtd">
<svg version="1.1" id="Layer_1" xmlns="http://www.w3.org/2000/svg" xmlns:xlink="http://www.w3.org/1999/xlink" x="0px" y="0px"
	 width="377.14px" height="189.359px" viewBox="0 0 377.14 189.359" enable-background="new 0 0 377.14 189.359"
	 xml:space="preserve">
<g id="XMLID_15_">
	<g>
		<polygon points="187.774,119.321 304.925,-0.199 276.414,-0.199 187.824,90.181 187.725,90.111 97.955,-0.459 69.064,-0.459 		"/>
	</g>
	<g>
		<polyline fill="none" stroke="#000000" stroke-miterlimit="10" points="187.475,119.621 187.774,119.321 304.925,-0.199 
			276.414,-0.199 187.824,90.181 		"/>
		<polyline fill="none" stroke="#000000" stroke-miterlimit="10" points="188.074,119.621 187.774,119.321 69.064,-0.459 
			97.955,-0.459 187.725,90.111 		"/>
	</g>
</g>
<g id="XMLID_14_">
	<g>
		<polygon fill="#AFD252" points="188.194,126.421 188.074,126.301 61.984,-0.449 37.044,-0.429 188.074,151.391 188.245,151.561 
			340.455,-0.639 315.265,-0.659 		"/>
	</g>
	<g>
		<polyline fill="none" stroke="#AFD252" stroke-miterlimit="10" points="187.955,126.65 188.194,126.421 315.265,-0.659 
			340.455,-0.639 188.245,151.561 187.955,151.851 		"/>
		<polyline fill="none" stroke="#AFD252" stroke-miterlimit="10" points="188.074,126.301 61.984,-0.449 37.044,-0.429 
			188.074,151.391 		"/>
	</g>
</g>
<g id="XMLID_16_">
	<g>
		<polygon fill="#4E1E58" points="187.025,80.541 108.575,-0.129 130.565,-0.169 187.455,58.321 187.715,58.101 246.016,-0.199 
			267.766,-0.199 187.225,80.341 		"/>
	</g>
	<g>
		<polyline fill="none" stroke="#4E1E58" stroke-miterlimit="10" points="187.715,58.101 246.016,-0.199 267.766,-0.199 
			187.225,80.341 		"/>
		<polyline fill="none" stroke="#4E1E58" stroke-miterlimit="10" points="187.345,80.871 187.025,80.541 108.575,-0.129 
			130.565,-0.169 187.455,58.321 		"/>
	</g>
</g>
<g id="XMLID_17_">
	<g>
		<polygon fill="#BC7FAC" points="188.185,25.931 214.285,-0.169 238.535,-0.169 188.185,50.181 179.025,41.021 137.835,-0.169 
			162.085,-0.169 166.565,4.311 		"/>
	</g>
	<g>
		<polyline fill="none" stroke="#BC7FAC" stroke-miterlimit="10" points="179.025,41.021 188.185,50.181 188.515,50.511 		"/>
		<polyline fill="none" stroke="#BC7FAC" stroke-miterlimit="10" points="166.565,4.311 162.085,-0.169 137.835,-0.169 
			179.025,41.021 		"/>
		<polyline fill="none" stroke="#BC7FAC" stroke-miterlimit="10" points="188.415,26.161 188.185,25.931 166.565,4.311 		"/>
		<polyline fill="none" stroke="#BC7FAC" stroke-miterlimit="10" points="187.955,26.161 188.185,25.931 214.285,-0.169 
			238.535,-0.169 188.185,50.181 187.855,50.511 		"/>
	</g>
</g>
<g id="XMLID_1_">
	<g>
		<polygon fill="#FFFFFF" points="188.416,-2.824 214.515,-28.924 238.765,-28.924 188.416,21.426 179.256,12.266 138.066,-28.924 
			162.316,-28.924 166.796,-24.444 		"/>
	</g>
</g>
</svg>
